<svg xmlns="http://www.w3.org/2000/svg" viewBox="0 0 240 240" class=""><ellipse class="shadow" cx="120" cy="207" rx="54" ry="6.5" fill="var(--dusty-ink, #2B2440)" opacity=".10"/><g class="dusty" style="transform-origin:120px 206px;transform:rotate(0deg) scaleY(1.0)"><path d="M180,169Q187.5,165 189.9,172.8Q197.9,173.6 194,182Q198.7,190.3 189.9,191.2Q187,200.5 180,195Q173.1,198.8 170.1,191.2Q163.2,188.4 166,182Q163.1,176.3 170.1,172.8Q172.3,166.1 180,169Z" fill="#CEC4F7" stroke="#2B2440" stroke-width="3" stroke-linejoin="round"/><g class="ear ear-l" style="transform-origin:102px 112px"><path d="M113,110.8C116.8,109.2 113.3,105.7 113.3,103.2C113.3,100.7 113.2,98.2 113.1,95.8C113.1,93.3 112.9,90.9 112.9,88.5C112.9,86.1 113,83.7 112.9,81.3C112.7,79 112.4,76.7 112.1,74.5C111.9,72.2 111.6,70 111.3,67.9C111,65.7 110.7,63.6 110.4,61.5C110,59.5 109.5,57.5 109,55.5C108.6,53.6 108.2,51.6 107.7,49.8C107.2,47.9 106.7,46.2 106.2,44.4C105.6,42.7 105,41 104.5,39.4C103.9,37.8 103.4,36.2 102.8,34.7C102.2,33.2 101.7,31.8 101.1,30.4C100.6,29 100.2,28.1 99.5,26.4C98.7,24.7 98.1,22 96.8,20.3C95.5,18.7 93.4,17.2 91.5,16.4C89.5,15.7 87,15.4 84.9,15.7C82.8,16 80.5,17.1 78.8,18.4C77.2,19.7 75.7,21.7 74.9,23.7C74.1,25.7 74.3,28.4 74.2,30.3C74,32.2 74,33.6 74,35.2C74,36.9 74,38.6 74.1,40.3C74.1,42.1 74.2,43.8 74.4,45.6C74.6,47.4 74.8,49.2 75.1,51.1C75.3,52.9 75.6,54.8 75.9,56.6C76.2,58.5 76.5,60.5 76.9,62.4C77.3,64.3 77.8,66.2 78.3,68.2C78.8,70.2 79.2,72.2 79.7,74.2C80.2,76.2 80.8,78.3 81.5,80.3C82.1,82.4 82.8,84.5 83.4,86.6C84,88.7 84.4,90.9 85,93C85.5,95.2 86.3,97.4 86.9,99.6C87.6,101.8 88.4,104 89.1,106.3C89.7,108.5 86.8,112.4 90.8,113.2C94.8,114 109.3,112.5 113,110.8Z" fill="#CEC4F7" stroke="#2B2440" stroke-width="3" stroke-linejoin="round"/><path d="M105.2,88.9C107.2,87.8 104.8,85.9 104.6,84.3C104.4,82.8 104.2,81.3 104,79.8C103.8,78.3 103.5,76.9 103.3,75.4C103.1,73.9 103,72.5 102.7,71.1C102.5,69.6 102.2,68.2 101.9,66.9C101.6,65.5 101.4,64.1 101.1,62.7C100.9,61.4 100.6,60.1 100.3,58.7C100.1,57.4 99.8,56.1 99.5,54.9C99.2,53.6 98.9,52.3 98.6,51.1C98.3,49.9 98,48.7 97.7,47.5C97.4,46.3 97.1,45.1 96.8,44C96.5,42.8 96.2,41.7 95.9,40.6C95.6,39.5 95.3,38.4 95.1,37.3C94.8,36.3 94.6,35.2 94.2,34.2C93.8,33.2 93.5,32.1 92.8,31.3C92.1,30.5 91.1,29.8 90.1,29.5C89.1,29.1 87.9,29 86.9,29.2C85.9,29.4 84.8,30 84,30.6C83.2,31.3 82.5,32.3 82.1,33.3C81.8,34.3 81.9,35.5 81.9,36.6C81.9,37.6 82.1,38.8 82.3,39.9C82.4,41 82.6,42.1 82.8,43.3C82.9,44.5 83.1,45.6 83.3,46.8C83.5,48 83.7,49.2 84,50.4C84.2,51.6 84.4,52.9 84.6,54.1C84.9,55.4 85.1,56.6 85.4,57.9C85.7,59.2 85.9,60.5 86.2,61.8C86.5,63.1 86.7,64.4 87,65.7C87.3,67 87.6,68.4 87.9,69.7C88.2,71.1 88.6,72.4 88.9,73.8C89.2,75.2 89.5,76.6 89.8,78C90.1,79.4 90.5,80.8 90.8,82.3C91.1,83.7 91.4,85.1 91.8,86.6C92.1,88 90.6,90.6 92.8,91C95.1,91.4 103.2,90 105.2,88.9Z" fill="#F6C4DA"/></g><g class="ear ear-r" style="transform-origin:138px 112px"><path d="M149.1,113.2C153.1,112.4 150.2,108.5 150.8,106.3C151.4,104 152,101.7 152.7,99.5C153.4,97.3 154.3,95.2 155,93C155.6,90.9 156.1,88.7 156.7,86.6C157.3,84.5 158,82.4 158.6,80.3C159.2,78.3 159.8,76.3 160.3,74.2C160.9,72.2 161.3,70.2 161.8,68.2C162.3,66.3 162.7,64.3 163.1,62.4C163.4,60.4 163.8,58.5 164.2,56.7C164.5,54.8 164.8,52.9 165,51.1C165.2,49.2 165.5,47.4 165.6,45.6C165.7,43.8 165.8,42.1 165.9,40.3C165.9,38.6 166,36.9 166,35.2C166,33.6 166,32.2 165.8,30.3C165.7,28.4 165.9,25.7 165.1,23.7C164.3,21.7 162.8,19.7 161.2,18.4C159.5,17.1 157.2,16 155.1,15.7C153,15.4 150.5,15.7 148.5,16.4C146.6,17.2 144.5,18.7 143.2,20.3C141.9,22 141.3,24.7 140.5,26.4C139.8,28.1 139.4,29 138.9,30.4C138.3,31.8 137.7,33.2 137.2,34.7C136.6,36.2 136.1,37.8 135.5,39.4C135,41 134.4,42.7 133.9,44.4C133.4,46.2 132.8,48 132.4,49.8C131.9,51.7 131.4,53.5 130.9,55.5C130.5,57.5 130.1,59.5 129.8,61.5C129.4,63.6 129.1,65.7 128.8,67.9C128.5,70 128.2,72.2 127.9,74.5C127.6,76.7 127.3,79 127.2,81.3C127,83.7 127.1,86.1 127,88.5C126.9,90.9 126.6,93.3 126.5,95.7C126.4,98.2 126.5,100.7 126.6,103.2C126.6,105.7 123.1,109.1 126.9,110.8C130.6,112.5 145.1,113.9 149.1,113.2Z" fill="#CEC4F7" stroke="#2B2440" stroke-width="3" stroke-linejoin="round"/><path d="M147.1,91C149.4,90.6 147.9,88.1 148.2,86.6C148.6,85.1 148.9,83.7 149.2,82.3C149.5,80.8 149.8,79.4 150.2,78C150.5,76.6 150.8,75.2 151.2,73.8C151.5,72.5 151.8,71.1 152.1,69.7C152.4,68.4 152.7,67 153,65.7C153.2,64.4 153.6,63.1 153.8,61.8C154.1,60.5 154.4,59.2 154.6,57.9C154.9,56.6 155.1,55.4 155.4,54.1C155.6,52.9 155.9,51.6 156.1,50.4C156.3,49.2 156.5,48 156.7,46.8C156.9,45.6 157.1,44.5 157.2,43.3C157.4,42.1 157.6,41 157.7,39.9C157.9,38.8 158.1,37.6 158.1,36.6C158.1,35.5 158.2,34.3 157.9,33.3C157.5,32.3 156.8,31.3 156,30.6C155.2,30 154.1,29.4 153.1,29.2C152.1,29 150.9,29.1 149.9,29.5C148.9,29.8 147.9,30.5 147.2,31.3C146.5,32.1 146.2,33.2 145.8,34.2C145.4,35.2 145.2,36.3 144.9,37.3C144.7,38.4 144.4,39.5 144.1,40.6C143.8,41.7 143.5,42.8 143.2,44C142.9,45.1 142.6,46.3 142.3,47.5C142,48.7 141.7,49.9 141.4,51.1C141.1,52.3 140.8,53.6 140.5,54.9C140.2,56.1 140,57.4 139.7,58.7C139.4,60.1 139.1,61.4 138.8,62.7C138.6,64.1 138.4,65.5 138.1,66.9C137.9,68.3 137.6,69.7 137.4,71.1C137.1,72.5 136.9,73.9 136.6,75.4C136.4,76.9 136.2,78.3 136,79.8C135.8,81.3 135.6,82.8 135.4,84.3C135.2,85.9 132.8,87.8 134.8,88.9C136.7,90 144.9,91.4 147.1,91Z" fill="#F6C4DA"/></g><path d="M121,86Q128.3,81.2 134,90Q142.4,94.9 134,98Q129.6,106.7 121,102Q114.1,105.8 108,98Q101.4,94.5 108,90Q111,80.3 121,86Z" fill="#CEC4F7" stroke="#2B2440" stroke-width="3" stroke-linejoin="round"/><clipPath id="proud-c"><path d="M118.9,97.1Q128.1,88 136.5,99.4Q145.7,90.2 150.9,103.7Q161.6,99.7 161.9,110.1Q172.5,110.4 172,121Q181.6,125.3 177.7,134.2Q190.4,138.6 183.2,149.6Q191.9,158.4 179.4,161.8Q186.7,173.2 174.7,178.3Q175.3,190.4 163.2,188.2Q158.8,202.8 147.6,196.5Q141,206.3 133.7,197.8Q127.5,205.1 122.2,198Q111.5,208 104.8,198.2Q97.4,208.2 90.6,196.8Q78,199 75.9,187.4Q66.2,186 67.6,176.1Q58.6,175.7 61.9,166Q52.9,157.9 58.3,149Q51.4,143 59.5,136.9Q56.2,124.9 66.8,123.5Q66,112.6 77,110.2Q78.2,98.4 87.5,103.7Q92.8,89.8 103.7,96.6Q111.3,88.7 118.9,97.1Z"/></clipPath><path d="M118.9,97.1Q128.1,88 136.5,99.4Q145.7,90.2 150.9,103.7Q161.6,99.7 161.9,110.1Q172.5,110.4 172,121Q181.6,125.3 177.7,134.2Q190.4,138.6 183.2,149.6Q191.9,158.4 179.4,161.8Q186.7,173.2 174.7,178.3Q175.3,190.4 163.2,188.2Q158.8,202.8 147.6,196.5Q141,206.3 133.7,197.8Q127.5,205.1 122.2,198Q111.5,208 104.8,198.2Q97.4,208.2 90.6,196.8Q78,199 75.9,187.4Q66.2,186 67.6,176.1Q58.6,175.7 61.9,166Q52.9,157.9 58.3,149Q51.4,143 59.5,136.9Q56.2,124.9 66.8,123.5Q66,112.6 77,110.2Q78.2,98.4 87.5,103.7Q92.8,89.8 103.7,96.6Q111.3,88.7 118.9,97.1Z" fill="#CEC4F7"/><g clip-path="url(#proud-c)"><ellipse cx="150" cy="214" rx="90" ry="40" fill="#B4A6F1"/><ellipse cx="96" cy="112" rx="38" ry="17" fill="#E6E0FC" opacity=".45"/></g><path d="M79.5,120.9q3,3.4 6,0q3,3.4 6,0" fill="none" stroke="#8E7DE3" stroke-width="2" stroke-linecap="round" stroke-linejoin="round" opacity=".75"/><path d="M99.4,108.7q3,3.4 6,0q3,3.4 6,0" fill="none" stroke="#8E7DE3" stroke-width="2" stroke-linecap="round" stroke-linejoin="round" opacity=".75"/><path d="M141.7,114.3q3,3.4 6,0q3,3.4 6,0" fill="none" stroke="#8E7DE3" stroke-width="2" stroke-linecap="round" stroke-linejoin="round" opacity=".75"/><path d="M64.7,151q3,3.4 6,0q3,3.4 6,0" fill="none" stroke="#8E7DE3" stroke-width="2" stroke-linecap="round" stroke-linejoin="round" opacity=".75"/><path d="M162.9,149q3,3.4 6,0q3,3.4 6,0" fill="none" stroke="#8E7DE3" stroke-width="2" stroke-linecap="round" stroke-linejoin="round" opacity=".75"/><path d="M91.2,186.9q3,3.4 6,0q3,3.4 6,0" fill="none" stroke="#8E7DE3" stroke-width="2" stroke-linecap="round" stroke-linejoin="round" opacity=".75"/><path d="M138.9,189q3,3.4 6,0q3,3.4 6,0" fill="none" stroke="#8E7DE3" stroke-width="2" stroke-linecap="round" stroke-linejoin="round" opacity=".75"/><path d="M159.4,128.5q3,3.4 6,0q3,3.4 6,0" fill="none" stroke="#8E7DE3" stroke-width="2" stroke-linecap="round" stroke-linejoin="round" opacity=".75"/><path d="M118.9,97.1Q128.1,88 136.5,99.4Q145.7,90.2 150.9,103.7Q161.6,99.7 161.9,110.1Q172.5,110.4 172,121Q181.6,125.3 177.7,134.2Q190.4,138.6 183.2,149.6Q191.9,158.4 179.4,161.8Q186.7,173.2 174.7,178.3Q175.3,190.4 163.2,188.2Q158.8,202.8 147.6,196.5Q141,206.3 133.7,197.8Q127.5,205.1 122.2,198Q111.5,208 104.8,198.2Q97.4,208.2 90.6,196.8Q78,199 75.9,187.4Q66.2,186 67.6,176.1Q58.6,175.7 61.9,166Q52.9,157.9 58.3,149Q51.4,143 59.5,136.9Q56.2,124.9 66.8,123.5Q66,112.6 77,110.2Q78.2,98.4 87.5,103.7Q92.8,89.8 103.7,96.6Q111.3,88.7 118.9,97.1Z" fill="none" stroke="#2B2440" stroke-width="3.2" stroke-linejoin="round"/><path d="M85,131Q89,118 101,111" fill="none" stroke="#fff" stroke-width="3.6" stroke-linecap="round" opacity=".75"/><ellipse cx="85" cy="163" rx="9.5" ry="5.4" fill="#F7A8C8" opacity=".8"/><path d="M80,165.2l2.2,-4.4" stroke="#E583AB" stroke-width="1.4" stroke-linecap="round"/><path d="M84,165.2l2.2,-4.4" stroke="#E583AB" stroke-width="1.4" stroke-linecap="round"/><path d="M88,165.2l2.2,-4.4" stroke="#E583AB" stroke-width="1.4" stroke-linecap="round"/><ellipse cx="155" cy="163" rx="9.5" ry="5.4" fill="#F7A8C8" opacity=".8"/><path d="M150,165.2l2.2,-4.4" stroke="#E583AB" stroke-width="1.4" stroke-linecap="round"/><path d="M154,165.2l2.2,-4.4" stroke="#E583AB" stroke-width="1.4" stroke-linecap="round"/><path d="M158,165.2l2.2,-4.4" stroke="#E583AB" stroke-width="1.4" stroke-linecap="round"/><g class="face"><path d="M90.5,152.5Q98,142 105.5,152.5" fill="none" stroke="#2B2440" stroke-width="3.4" stroke-linecap="round"/><path d="M134.5,152.5Q142,142 149.5,152.5" fill="none" stroke="#2B2440" stroke-width="3.4" stroke-linecap="round"/><path d="M116.6,158.6Q120,156.6 123.4,158.6Q122.6,162.2 120,162.6Q117.4,162.2 116.6,158.6Z" fill="#F08DB4" stroke="#2B2440" stroke-width="1.6" stroke-linejoin="round"/><path d="M120,162.6V164.6M113.4,163.6Q116.7,168 120,164.6Q123.3,168 126.6,163.6" fill="none" stroke="#2B2440" stroke-width="2.3" stroke-linecap="round" stroke-linejoin="round"/></g><g class="paw paw-l"><path d="M104,191.4Q110.1,189.7 113,194.3Q116.9,196 115.2,200.7Q113.9,206.9 109,205.8Q103.3,209.8 99,205.8Q93,206 92.8,200.7Q91.1,196.5 95,194.3Q97.5,190.1 104,191.4Z" fill="#E4DEFC" stroke="#2B2440" stroke-width="2.6" stroke-linejoin="round"/><path d="M101,196.5v3.4M107,196.5v3.4" stroke="#8E7DE3" stroke-width="1.5" stroke-linecap="round"/></g><g class="paw paw-r"><path d="M136,191.4Q142.5,189.7 145,194.3Q149.9,196.1 147.2,200.7Q146,206.5 141,205.8Q135.6,208.5 131,205.8Q124.9,206.1 124.8,200.7Q122.3,196.3 127,194.3Q131.3,189.9 136,191.4Z" fill="#E4DEFC" stroke="#2B2440" stroke-width="2.6" stroke-linejoin="round"/><path d="M133,196.5v3.4M139,196.5v3.4" stroke="#8E7DE3" stroke-width="1.5" stroke-linecap="round"/></g><g class="sparkles"><path d="M36,95Q38.5,101.5 45,104Q38.5,106.5 36,113Q33.5,106.5 27,104Q33.5,101.5 36,95Z" fill="#7966DA"/><path d="M210,131.5Q211.8,136.2 216.5,138Q211.8,139.8 210,144.5Q208.2,139.8 203.5,138Q208.2,136.2 210,131.5Z" fill="#7966DA"/><path d="M56,57.4Q57.3,60.7 60.6,62Q57.3,63.3 56,66.6Q54.7,63.3 51.4,62Q54.7,60.7 56,57.4Z" fill="#B4A6F1"/><path d="M216,91.8Q217.2,94.8 220.2,96Q217.2,97.2 216,100.2Q214.8,97.2 211.8,96Q214.8,94.8 216,91.8Z" fill="#B4A6F1"/></g></g></svg>